<svg width="11" height="14" viewBox="0 0 11 14" fill="none" xmlns="http://www.w3.org/2000/svg">
<path d="M2.15739 0C1.58537 0.000594284 1.03704 0.228111 0.632522 0.632522C0.228108 1.03704 0.000583203 1.58537 0 2.15739V12.0726C0.000990482 12.5735 0.200475 13.0536 0.554677 13.4078C0.908884 13.7619 1.38906 13.9613 1.88996 13.9622H10.1651C10.3864 13.9619 10.5986 13.8738 10.7552 13.7173C10.9117 13.5608 10.9998 13.3485 11 13.1272V0.834533C10.9998 0.613256 10.9116 0.401086 10.7552 0.244585C10.5987 0.0881854 10.3864 0.000230743 10.1651 0.000131852L2.15739 0ZM0.709986 12.0726C0.710878 11.7599 0.835482 11.4602 1.05656 11.2392C1.27764 11.0181 1.57726 10.8935 1.88996 10.8926H10.2901V13.1281C10.2901 13.1963 10.2352 13.2518 10.1671 13.2526H1.88992C1.57722 13.2517 1.27761 13.1271 1.05652 12.9061C0.835441 12.6849 0.710833 12.3853 0.709946 12.0726L0.709986 12.0726ZM10.29 0.834487V10.1827H1.88983C1.45917 10.1845 1.04236 10.3351 0.709859 10.6087V2.15762C0.710355 1.7739 0.862991 1.40603 1.13438 1.13463C1.40567 0.863343 1.77355 0.710696 2.15727 0.710214H10.1649C10.2336 0.710214 10.2895 0.76588 10.2898 0.834619L10.29 0.834487Z" fill="#303030"/>
<path d="M7.99746 2.44287H3.00295C2.76583 2.44366 2.53862 2.53806 2.37071 2.70544C2.20282 2.87293 2.10784 3.09986 2.10645 3.33697V4.80905C2.10734 5.04647 2.20203 5.27399 2.37003 5.44178C2.53792 5.60967 2.76544 5.70427 3.00295 5.70506H7.99746C8.23498 5.70426 8.4625 5.60967 8.63038 5.44178C8.79837 5.27399 8.89305 5.04647 8.89397 4.80905V3.33697C8.89258 3.09985 8.79759 2.87292 8.6297 2.70544C8.46181 2.53804 8.23459 2.44366 7.99746 2.44287ZM8.18397 4.80946V4.80956C8.18218 4.91168 8.09968 4.99399 7.99746 4.99557H3.00295C2.90074 4.99399 2.81823 4.91168 2.81644 4.80956V3.33699C2.81694 3.23438 2.90034 3.15148 3.00295 3.15148H7.99746C8.10007 3.15148 8.18347 3.23438 8.18397 3.33699V4.80946Z" fill="#303030"/>
<path d="M8.2607 7.24951H2.73878C2.54276 7.24951 2.38379 7.40849 2.38379 7.6045C2.38379 7.80052 2.54276 7.9595 2.73878 7.9595H8.2607C8.45672 7.9595 8.61569 7.80052 8.61569 7.6045C8.61569 7.40849 8.45672 7.24951 8.2607 7.24951Z" fill="#303030"/>
</svg>
