<svg width="16" height="13" viewBox="0 0 16 13" fill="none" xmlns="http://www.w3.org/2000/svg">
<path d="M11.9079 1.26758H1.61524C1.47718 1.26758 1.36523 1.37952 1.36523 1.51758V9.51764C1.36523 9.58394 1.39157 9.64756 1.43845 9.69443C1.48544 9.7413 1.54894 9.76764 1.61524 9.76764H11.9079C11.9742 9.76764 12.0378 9.74131 12.0847 9.69443C12.1316 9.64755 12.1579 9.58394 12.1579 9.51764V1.51758C12.1579 1.45129 12.1316 1.38767 12.0847 1.34079C12.0378 1.29392 11.9742 1.26758 11.9079 1.26758ZM11.6579 9.26764H1.85781V1.75272H11.6653L11.6579 9.26764Z" fill="#303030"/>
<path d="M13.8325 1.60987C13.5459 1.6092 13.2709 1.72248 13.0677 1.92473C12.8647 2.12696 12.7505 2.40162 12.75 2.68825C12.7495 2.97488 12.8631 3.24985 13.0654 3.45265C13.2679 3.65556 13.5426 3.76974 13.8291 3.76994C14.1157 3.77016 14.3906 3.65643 14.5934 3.45388C14.7961 3.25131 14.91 2.97653 14.91 2.68993C14.91 2.40387 14.7965 2.12956 14.5945 1.9271C14.3925 1.72464 14.1185 1.61058 13.8325 1.60989L13.8325 1.60987ZM13.8325 3.28242C13.6745 3.28309 13.5226 3.22082 13.4105 3.10932C13.2983 2.99782 13.2353 2.84626 13.235 2.68823C13.2348 2.53008 13.2974 2.3784 13.4093 2.26668C13.5211 2.15485 13.6728 2.09213 13.8308 2.09235C13.989 2.09257 14.1404 2.15574 14.2519 2.2678C14.3634 2.37996 14.4257 2.53175 14.425 2.68989C14.4243 2.84681 14.3617 2.99715 14.2508 3.10809C14.1397 3.21903 13.9894 3.28175 13.8325 3.28242H13.8325Z" fill="#303030"/>
<path d="M13.8333 4.25293C13.5476 4.25293 13.2735 4.36644 13.0715 4.56856C12.8694 4.77057 12.7559 5.04468 12.7559 5.3304C12.7559 5.61623 12.8694 5.89023 13.0715 6.09234C13.2735 6.29435 13.5476 6.40798 13.8333 6.40798C14.1192 6.40798 14.3932 6.29436 14.5953 6.09234C14.7973 5.89022 14.9109 5.61623 14.9109 5.3304C14.9109 5.04468 14.7973 4.77056 14.5953 4.56856C14.3932 4.36644 14.1192 4.25293 13.8333 4.25293ZM13.8333 5.92291C13.6762 5.92291 13.5255 5.86053 13.4144 5.74936C13.3033 5.6382 13.2408 5.48753 13.2408 5.33039C13.2408 5.17325 13.3033 5.02259 13.4144 4.91142C13.5255 4.80037 13.6762 4.73787 13.8333 4.73787C13.9905 4.73787 14.1411 4.80037 14.2523 4.91142C14.3635 5.02258 14.4258 5.17325 14.4258 5.33039C14.4258 5.48753 14.3635 5.63819 14.2523 5.74936C14.1411 5.86054 13.9905 5.92291 13.8333 5.92291Z" fill="#303030"/>
<path d="M14.2646 7.00313H13.3997C13.325 6.98438 13.2458 7.00112 13.1851 7.04855C13.1244 7.09587 13.0889 7.16864 13.0889 7.24565C13.0889 7.32266 13.1244 7.39532 13.1851 7.44275C13.2458 7.49007 13.325 7.50681 13.3997 7.48806H14.2646C14.3394 7.50681 14.4186 7.49007 14.4793 7.44275C14.54 7.39531 14.5755 7.32266 14.5755 7.24565C14.5755 7.16864 14.54 7.09587 14.4793 7.04855C14.4186 7.00112 14.3394 6.98438 14.2646 7.00313Z" fill="#303030"/>
<path d="M14.2651 7.95996H13.4001C13.2888 7.98786 13.2109 8.08775 13.2109 8.20249C13.2109 8.31711 13.2888 8.41711 13.4001 8.44501H14.2651C14.3763 8.41711 14.4544 8.31711 14.4544 8.20249C14.4544 8.08775 14.3763 7.98786 14.2651 7.95996Z" fill="#303030"/>
<path d="M14.2651 8.91992H13.4001C13.2888 8.94771 13.2109 9.04771 13.2109 9.16234C13.2109 9.27707 13.2888 9.37696 13.4001 9.40486H14.2651C14.3763 9.37696 14.4544 9.27707 14.4544 9.16234C14.4544 9.04771 14.3763 8.94771 14.2651 8.91992Z" fill="#303030"/>
<path d="M15.2801 8.50139e-06H0.719971C0.52901 8.50139e-06 0.345854 0.0759007 0.210939 0.210947C0.0758922 0.345994 0 0.52915 0 0.720094V10.2976C0 10.4886 0.0758922 10.6717 0.210939 10.8067C0.345874 10.9418 0.529027 11.0176 0.719971 11.0176H1.69498V11.9526C1.69498 12.0189 1.72132 12.0826 1.76819 12.1294C1.81507 12.1763 1.87869 12.2026 1.94498 12.2026H3.47748C3.54377 12.2026 3.60739 12.1763 3.65427 12.1294C3.70114 12.0826 3.72748 12.0189 3.72748 11.9526V11.0176H12.3024V11.9526C12.3024 12.0189 12.3287 12.0826 12.3756 12.1294C12.4226 12.1763 12.4861 12.2026 12.5524 12.2026H14.085C14.1513 12.2026 14.2148 12.1763 14.2618 12.1294C14.3087 12.0826 14.335 12.0189 14.335 11.9526V11.0176H15.31C15.4957 11.0099 15.6712 10.9306 15.7998 10.7964C15.9285 10.6622 16.0001 10.4834 16 10.2976V0.720086C16 0.529124 15.9241 0.345968 15.7891 0.210939C15.6541 0.0758919 15.471 0 15.28 0L15.2801 8.50139e-06ZM3.22742 11.7101H2.17998V11.0176H3.22753L3.22742 11.7101ZM13.8201 11.7101H12.7726V11.0176H13.8202L13.8201 11.7101ZM15.5151 10.2976C15.5151 10.3599 15.4904 10.4197 15.4463 10.4638C15.4022 10.5078 15.3424 10.5326 15.2801 10.5326H0.720011C0.59021 10.5326 0.485075 10.4274 0.485075 10.2976V0.720071C0.485075 0.59027 0.59021 0.485024 0.720011 0.485024H15.2801C15.4099 0.485024 15.5151 0.59027 15.5151 0.720071L15.5151 10.2976Z" fill="#303030"/>
</svg>
