<svg width="9" height="17" viewBox="0 0 9 17" fill="none" xmlns="http://www.w3.org/2000/svg">
<path d="M7.56706 0H1.41177C0.621177 0 0 0.621177 0 1.41177V14.9082C0 15.6988 0.621177 16.32 1.41177 16.32H7.56706C8.35765 16.32 8.97883 15.6988 8.97883 14.9082V1.41177C8.97883 0.621177 8.32947 0 7.56706 0ZM8.41417 14.9082C8.41417 15.3882 8.04705 15.7554 7.56706 15.7554H1.41177C0.93179 15.7554 0.564656 15.3882 0.564656 14.9082V12.8188H8.41407L8.41417 14.9082ZM8.41417 12.2541H0.564758V3.0776H8.41417V12.2541ZM0.564758 2.51289V1.41171C0.564758 0.93174 0.931877 0.564605 1.41187 0.564605H7.56716C8.04714 0.564605 8.41427 0.931724 8.41427 1.41171V2.51289H0.564758Z" fill="#303030"/>
<path d="M4.48931 15.2755C5.02583 15.2755 5.47765 14.8237 5.47765 14.2872C5.47765 13.7506 5.02584 13.2988 4.48931 13.2988C3.95279 13.2988 3.50098 13.7506 3.50098 14.2872C3.50098 14.8237 3.95279 15.2755 4.48931 15.2755ZM4.48931 13.8354C4.71522 13.8354 4.91276 14.0331 4.91276 14.2588C4.91276 14.4848 4.71502 14.6823 4.48931 14.6823C4.2634 14.6823 4.06586 14.4846 4.06586 14.2588C4.06586 14.0331 4.26341 13.8354 4.48931 13.8354Z" fill="#303030"/>
</svg>
