<svg width="16" height="16" viewBox="0 0 16 16" fill="none" xmlns="http://www.w3.org/2000/svg">
<path d="M2.50133 15.6438H7.01614C7.19641 15.6438 7.34209 15.4981 7.34209 15.3178C7.34209 15.1376 7.19641 14.9919 7.01614 14.9919H2.79967L1.74438 3.08947L7.77298 3.08958L7.36203 7.72787C7.3461 7.90715 7.47835 8.06549 7.65797 8.08119C7.833 8.10105 7.99525 7.96454 8.01129 7.78524L8.45378 2.79247C8.46196 2.70125 8.4313 2.61089 8.36964 2.54346C8.3081 2.47602 8.2207 2.4375 8.12914 2.4375H1.38821C1.29699 2.4375 1.20958 2.47591 1.14804 2.54346C1.08649 2.61089 1.05583 2.70124 1.06358 2.79247L2.17683 15.3466C2.19189 15.5148 2.33266 15.6439 2.50146 15.6439L2.50133 15.6438Z" fill="#303030"/>
<path d="M4.29521 10.4903C4.44809 10.4903 4.58459 10.3823 4.61462 10.2266C4.85709 8.98397 5.9701 8.08252 7.26035 8.08252L11.2531 8.08241C12.543 8.08241 13.656 8.9845 13.8991 10.2268C13.9337 10.4032 14.1051 10.5182 14.2814 10.4839C14.458 10.4493 14.5734 10.2779 14.5388 10.1014C14.2361 8.55403 12.8539 7.43066 11.2531 7.43066H7.26068C5.65924 7.43066 4.27753 8.55406 3.97527 10.1018C3.94101 10.2785 4.05613 10.4496 4.23269 10.4841C4.25364 10.4883 4.27448 10.4903 4.29543 10.4903L4.29521 10.4903Z" fill="#303030"/>
<path d="M7.25959 15.6433H11.2523C12.8534 15.6433 14.2354 14.5301 14.5377 12.996C14.5726 12.8193 14.4575 12.6482 14.2809 12.6131C14.1043 12.5788 13.9332 12.6933 13.8984 12.8698C13.6558 14.0992 12.5428 14.9916 11.2522 14.9916H7.25977C5.96888 14.9916 4.85618 14.0995 4.61404 12.8699C4.57913 12.6933 4.40639 12.5783 4.23114 12.6132C4.05448 12.6481 3.93948 12.8195 3.97438 12.9961C4.27641 14.5301 5.65832 15.6433 7.25951 15.6433H7.25959Z" fill="#303030"/>
<path d="M4.40667 13.2629H14.1064C15.0435 13.2629 15.8057 12.4999 15.8057 11.562C15.8057 10.6244 15.0434 9.86182 14.1064 9.86182H4.40667C3.46966 9.86182 2.70712 10.6245 2.70712 11.562C2.70745 12.5 3.46966 13.2629 4.40667 13.2629ZM14.1064 10.5139C14.6839 10.5139 15.1539 10.9842 15.1539 11.5623C15.1539 12.1405 14.6839 12.6114 14.1064 12.6114H4.40667C3.8292 12.6114 3.35889 12.1408 3.35889 11.5623C3.35889 10.9845 3.82887 10.5139 4.40667 10.5139H14.1064Z" fill="#303030"/>
<path d="M0.325707 3.08939H9.19164C9.37157 3.08939 9.51758 2.94338 9.51758 2.76344C9.51758 2.5835 9.37157 2.4375 9.19164 2.4375H0.325707C0.145442 2.4375 -0.000235558 2.5835 -0.000235558 2.76344C-0.000235558 2.94338 0.145439 3.08939 0.325707 3.08939Z" fill="#303030"/>
<path d="M6.32869 3.08944C6.42876 3.08944 6.52718 3.04383 6.59134 2.95708L8.39129 0.519658C8.49823 0.374965 8.46757 0.170921 8.32287 0.0640708C8.17818 -0.0435226 7.97414 -0.012205 7.86729 0.132489L6.06703 2.56991C5.96009 2.7146 5.99108 2.91864 6.13578 3.02549C6.19383 3.06881 6.26159 3.08944 6.3287 3.08944H6.32869Z" fill="#303030"/>
</svg>
