<svg width="13" height="13" viewBox="0 0 13 13" fill="none" xmlns="http://www.w3.org/2000/svg">
<path fill-rule="evenodd" clip-rule="evenodd" d="M6.5 0C2.91409 0 0 2.91409 0 6.5C0 10.0859 2.91409 13 6.5 13C10.0859 13 13 10.0859 13 6.5C13 2.91409 10.0859 0 6.5 0ZM6.5 0.65C9.73468 0.65 12.35 3.26532 12.35 6.5C12.35 9.73468 9.73468 12.35 6.5 12.35C3.26532 12.35 0.65 9.73468 0.65 6.5C0.65 3.26532 3.26532 0.65 6.5 0.65Z" fill="#303030"/>
<path fill-rule="evenodd" clip-rule="evenodd" d="M3.06888 5.48926C2.51427 5.48926 2.05762 5.94574 2.05762 6.50036C2.05762 7.05497 2.51438 7.51162 3.06888 7.51162C3.62349 7.51162 4.07998 7.05485 4.07998 6.50036C4.07998 5.94574 3.62349 5.48926 3.06888 5.48926ZM3.06888 6.13926C3.27218 6.13926 3.42998 6.29704 3.42998 6.50036C3.42998 6.70367 3.27219 6.86162 3.06888 6.86162C2.86557 6.86162 2.70762 6.70356 2.70762 6.50036C2.70762 6.29705 2.86567 6.13926 3.06888 6.13926Z" fill="#303030"/>
<path fill-rule="evenodd" clip-rule="evenodd" d="M6.50052 5.48926C5.94591 5.48926 5.48926 5.94574 5.48926 6.50036C5.48926 7.05497 5.94602 7.51162 6.50052 7.51162C7.05513 7.51162 7.51162 7.05485 7.51162 6.50036C7.51162 5.94574 7.05513 5.48926 6.50052 5.48926ZM6.50052 6.13926C6.70382 6.13926 6.86162 6.29704 6.86162 6.50036C6.86162 6.70367 6.70383 6.86162 6.50052 6.86162C6.29721 6.86162 6.13926 6.70356 6.13926 6.50036C6.13926 6.29705 6.29731 6.13926 6.50052 6.13926Z" fill="#303030"/>
<path fill-rule="evenodd" clip-rule="evenodd" d="M9.93004 5.48926C9.37543 5.48926 8.91895 5.94602 8.91895 6.50052C8.91895 7.05513 9.37543 7.51162 9.93004 7.51162C10.4847 7.51162 10.9411 7.05513 10.9411 6.50052C10.9411 5.94591 10.4847 5.48926 9.93004 5.48926ZM9.93004 6.13926C10.1333 6.13926 10.2911 6.29731 10.2911 6.50052C10.2911 6.70382 10.1334 6.86162 9.93004 6.86162C9.72674 6.86162 9.56895 6.70383 9.56895 6.50052C9.56895 6.29721 9.72673 6.13926 9.93004 6.13926Z" fill="#303030"/>
</svg>
